<?xml version="1.0" encoding="utf-8"?>
<!-- Generator: Adobe Illustrator 13.0.0, SVG Export Plug-In  -->
<!DOCTYPE svg PUBLIC "-//W3C//DTD SVG 1.1//EN" "http://www.w3.org/Graphics/SVG/1.1/DTD/svg11.dtd" [
	<!ENTITY ns_flows "http://ns.adobe.com/Flows/1.0/">
]>
<svg version="1.1"
	 xmlns="http://www.w3.org/2000/svg" xmlns:xlink="http://www.w3.org/1999/xlink" xmlns:a="http://ns.adobe.com/AdobeSVGViewerExtensions/3.0/"
	 x="0px" y="0px" width="120px" height="120px" viewBox="0 0 120 120" enable-background="new 0 0 120 120" xml:space="preserve">
<defs>
</defs>
<circle fill="#F7F7F7" cx="60" cy="60" r="60"/>
<path fill="#FDBE00" d="M86.9,39.383L75.575,78.796c-1.104,4.033-2.925,5.292-6.828,5.292H36.351c-3.818,0-4.006-4.472,0-4.472
	l0.236-0.008l27.689,0.008c2.934,0,5.99-2.365,6.823-5.29l11.046-38.591c0.843-2.918-0.86-5.289-3.799-5.289l-31.544-0.005
	c-2.938,0-5.992,2.369-6.831,5.289L28.715,75.146c-4.1,11.456,5.695,13.412,8.341,13.412h36.162c2.934,0,5.989-2.367,6.823-5.292
	l11.046-38.591C91.929,41.757,89.834,39.383,86.9,39.383z"/>
<path fill="#F7F7F7" d="M65.412,43.415l2.477-2.463h1.325l-2.704,9.536h-1.68c-0.046-2.737-0.665-4.787-1.86-6.149
	c-1.194-1.362-2.763-2.043-4.704-2.043c-1.654,0-3.136,0.452-4.446,1.352c-1.31,0.9-2.155,1.978-2.532,3.233
	c-0.225,0.746-0.225,1.429-0.003,2.051c0.222,0.621,0.725,1.152,1.506,1.592c0.779,0.442,2.242,0.899,4.386,1.37
	c2.503,0.559,4.2,1.061,5.086,1.509c1.403,0.721,2.331,1.676,2.783,2.864c0.453,1.188,0.424,2.633-0.089,4.337
	c-0.768,2.549-2.258,4.583-4.468,6.101c-2.666,1.828-5.56,2.743-8.683,2.743c-2.874,0-5.197-1.002-6.972-3.004l-3.002,2.724h-1.381
	l3.078-10.226h1.642c-0.127,5.834,2.298,8.752,7.282,8.752c2.037,0,3.763-0.47,5.177-1.409c1.413-0.936,2.331-2.108,2.755-3.515
	c0.295-0.982,0.295-1.806-0.001-2.47c-0.298-0.665-0.906-1.203-1.825-1.614c-0.506-0.224-1.816-0.577-3.931-1.062
	c-2.841-0.672-4.805-1.364-5.888-2.08c-1.085-0.715-1.774-1.592-2.071-2.63c-0.297-1.039-0.221-2.303,0.229-3.795
	c0.756-2.51,2.216-4.56,4.379-6.145c2.163-1.584,4.664-2.378,7.5-2.378C61.504,40.596,63.714,41.536,65.412,43.415z"/>
</svg>
